<?xml version="1.0" encoding="UTF-8" standalone="no"?>
<svg
   xmlns:dc="http://purl.org/dc/elements/1.1/"
   xmlns:cc="http://creativecommons.org/ns#"
   xmlns:rdf="http://www.w3.org/1999/02/22-rdf-syntax-ns#"
   xmlns:svg="http://www.w3.org/2000/svg"
   xmlns="http://www.w3.org/2000/svg"
   xmlns:xlink="http://www.w3.org/1999/xlink"
   id="svg10"
   preserveAspectRatio="xMidYMid meet"
   viewBox="0 0 1280.000000 951.000000"
   height="951.000000pt"
   width="1280.000000pt"
   version="1.0">
  <metadata
     id="metadata16">
    <rdf:RDF>
      <cc:Work
         rdf:about="">
        <dc:format>image/svg+xml</dc:format>
        <dc:type
           rdf:resource="http://purl.org/dc/dcmitype/StillImage" />
        <dc:title></dc:title>
      </cc:Work>
    </rdf:RDF>
  </metadata>
  <defs
     id="defs14">
    <linearGradient
       id="linearGradient839">
      <stop
         id="stop835"
         offset="0"
         style="stop-color:#474a55;stop-opacity:1;" />
      <stop
         id="stop837"
         offset="1"
         style="stop-color:#474a55;stop-opacity:0;" />
    </linearGradient>
    <linearGradient
       gradientUnits="userSpaceOnUse"
       y2="476.48102"
       x2="1274.7479"
       y1="476.48102"
       x1="10.595746"
       id="linearGradient841"
       xlink:href="#linearGradient839" />
  </defs>
  <path
     id="path825"
     d="M 34.2,587.3 58.139892,394.74267 73.853376,245.46457 153.99215,124.47074 268.70058,61.616804 436.83487,9.7623061 600.2551,17.619048 l 133.56461,29.85562 152.3803,43.425333 91.1787,-43.425333 83.28149,-9.42809 47.1404,28.284271 59.7113,64.425281 50.2831,50.28315 39.2838,84.85282 17.2848,105.28035 -72.282,234.13091 L 1183.7,703.9 l 60.8079,60.10956 20.4276,50.28315 -31.427,29.85563 -51.8545,-4.71405 -42.4264,-51.85448 -45.5691,-196.41859 -67.568,-50.28314 -32.89046,63.62192 17.17706,88.79887 17.2848,97.42359 51.8544,73.8534 -18.8561,32.99828 -87.99554,17.28487 -48.71182,-37.7124 -40.85505,-122.56515 -54.9972,-78.56742 -95.85223,155.56347 -18.85617,84.85283 -50.28315,26.7129 -87.99552,-56.56853 14.14214,-61.28257 L 636.8,773.49999 620.5,657.1 575.11352,666.58595 471.40453,624.15954 466.69048,668.15729 407.1,712.5 392.83711,748.29606 422.69272,870.86124 405.40789,921.14439 339.41126,941.57191 271.84328,918.00166 260.5,882.50004 257.70114,782.86576 202.70395,822.14941 153.99215,897.57414 121.2,914.10001 23.570226,826.86346 10.999439,753.01014 54.997195,712.15505 169.70563,661.8719 191.70451,595.87527 147.70675,504.73706 114.70844,459.16795 Z"
     style="fill:url(#linearGradient841);stroke:#000000;stroke-width:0.75px;stroke-linecap:butt;stroke-linejoin:miter;stroke-opacity:1;fill-opacity:1" />
  <g
     id="g8"
     stroke="none"
     fill="#000000"
     transform="translate(0.000000,951.000000) scale(0.100000,-0.100000)">
    <path
       style="fill:#000500;fill-opacity:1"
       id="path2"
       d="M4795 9503 c-760 -44 -1466 -214 -2155 -518 -80 -35 -190 -80 -245 -101 -228 -83 -459 -210 -670 -368 -143 -107 -428 -388 -535 -526 -236 -306 -411 -633 -531 -993 -138 -413 -167 -677 -219 -2037 -20 -512 -47 -851 -91 -1120 -34 -208 -34 -196 -7 -203 12 -4 32 -7 43 -7 12 0 37 -8 57 -18 41 -21 60 -13 77 31 6 14 64 111 130 215 214 337 293 473 401 688 l106 212 43 -85 c52 -101 114 -194 194 -288 122 -145 254 -367 321 -540 66 -171 80 -244 80 -405 0 -134 -2 -150 -26 -213 -84 -212 -277 -350 -783 -562 -506 -211 -724 -347 -885 -552 -78 -98 -95 -165 -94 -353 1 -155 24 -250 95 -400 158 -332 524 -675 988 -925 l123 -66 71 11 c138 21 261 86 371 196 85 85 148 172 291 399 186 296 290 422 406 492 65 39 146 70 156 60 7 -8 0 -48 -62 -342 -62 -298 -59 -499 11 -639 88 -174 199 -287 377 -381 178 -95 356 -131 596 -122 264 10 462 71 661 204 64 42 70 49 109 134 72 154 85 218 85 419 0 225 -11 282 -150 764 -81 282 -98 375 -99 541 0 103 5 158 18 210 l18 70 92 56 c116 71 313 209 439 307 83 65 100 84 122 131 33 77 55 143 62 194 10 71 8 70 76 32 226 -128 473 -237 678 -298 183 -55 291 -71 492 -72 l177 0 7 -75 c10 -110 -3 -546 -21 -688 l-15 -123 -129 -177 c-232 -320 -324 -476 -379 -645 -23 -71 -27 -99 -27 -207 0 -95 4 -138 18 -180 43 -128 139 -243 288 -343 46 -32 113 -82 148 -112 76 -64 187 -124 291 -156 63 -20 96 -24 205 -23 114 0 140 4 210 27 100 34 179 78 254 142 168 145 255 334 267 580 11 210 78 424 229 730 102 206 206 377 405 665 70 102 165 240 211 307 46 67 87 122 92 122 4 1 7 -8 7 -19 0 -32 55 -146 105 -215 25 -35 90 -106 145 -157 122 -113 176 -180 237 -294 72 -135 107 -235 208 -585 98 -344 155 -501 227 -626 84 -147 203 -266 337 -337 58 -30 80 -36 171 -43 428 -33 883 73 1062 248 79 77 110 148 111 249 0 123 -46 215 -188 375 -124 141 -195 248 -269 407 -137 292 -192 599 -216 1193 -9 213 -15 283 -30 332 -31 100 -43 226 -37 373 8 210 49 369 112 439 32 34 33 35 74 23 49 -15 117 -77 266 -241 60 -66 138 -144 174 -173 35 -29 72 -60 81 -68 9 -10 23 -57 34 -120 10 -58 42 -224 73 -370 30 -146 76 -375 104 -510 54 -268 89 -407 144 -574 215 -647 594 -960 1082 -896 180 24 373 170 434 327 32 84 31 203 -4 301 -53 153 -143 282 -397 572 -89 102 -188 218 -219 259 l-56 74 1 206 c2 397 73 815 231 1356 54 185 310 947 373 1110 70 181 109 332 141 550 18 116 18 498 0 625 -34 249 -94 490 -175 700 -20 52 -53 138 -72 190 -54 144 -115 264 -197 387 -144 216 -293 373 -662 701 -274 243 -539 507 -634 632 -83 109 -116 130 -285 185 -158 51 -222 60 -421 60 -148 0 -201 -5 -295 -23 -346 -70 -741 -264 -1097 -538 l-81 -63 -104 45 c-593 258 -1484 525 -2243 674 -88 17 -218 44 -290 60 -278 63 -553 101 -860 120 -155 9 -445 11 -570 3z m626 -203 c270 -21 551 -62 774 -115 55 -13 183 -40 285 -60 788 -154 1568 -390 2259 -684 79 -34 147 -61 151 -61 4 0 61 42 126 93 654 508 1263 675 1751 480 59 -24 70 -33 141 -122 107 -135 255 -285 487 -494 406 -365 483 -438 575 -542 206 -232 289 -368 395 -645 191 -498 244 -769 232 -1174 -8 -279 -55 -506 -154 -746 -82 -199 -341 -993 -424 -1300 -120 -446 -168 -766 -176 -1172 l-6 -287 56 -83 c31 -46 144 -184 251 -307 218 -251 291 -347 347 -458 44 -87 56 -159 39 -224 -14 -54 -98 -139 -180 -184 -53 -29 -59 -30 -190 -30 -116 0 -145 3 -203 24 -85 29 -197 103 -263 173 -196 208 -351 586 -439 1067 -14 75 -41 206 -60 291 -47 215 -73 345 -159 805 -174 928 -231 1173 -378 1643 -28 89 -55 162 -59 162 -4 0 -51 -42 -105 -92 -192 -182 -240 -298 -314 -758 -49 -300 -69 -379 -125 -495 -32 -66 -63 -112 -119 -173 -42 -45 -76 -86 -76 -91 0 -4 -23 -31 -51 -59 -126 -126 -293 -145 -392 -44 -65 67 -84 178 -52 303 13 49 14 80 5 191 -51 650 -221 1246 -567 1996 -115 250 -127 305 -128 572 0 232 16 335 81 523 132 378 411 704 727 847 62 28 64 28 129 15 140 -30 268 -91 563 -268 199 -120 397 -227 419 -227 15 0 89 174 76 178 -39 13 -226 117 -395 219 -322 195 -479 265 -664 299 l-88 16 -80 -34 c-508 -220 -876 -736 -958 -1342 -27 -196 -15 -425 31 -612 9 -38 48 -136 87 -219 340 -736 518 -1339 567 -1931 9 -111 9 -145 -4 -214 -9 -45 -16 -105 -16 -134 0 -68 25 -171 54 -222 l24 -42 -35 -7 c-137 -25 -427 -145 -495 -203 -24 -21 -23 -16 18 74 97 213 237 564 228 574 -12 12 -169 67 -175 61 -4 -3 -36 -80 -72 -171 -141 -358 -302 -695 -460 -961 -91 -153 -136 -221 -396 -595 -235 -338 -359 -541 -471 -769 -150 -304 -240 -594 -240 -775 -1 -332 -232 -580 -540 -580 -144 0 -274 53 -398 163 -38 34 -96 78 -128 97 -76 46 -165 135 -193 193 -13 26 -28 76 -34 111 -9 56 -8 75 11 153 41 166 114 294 372 653 l148 205 17 125 c23 162 32 551 22 915 -9 320 -3 731 13 854 11 82 13 86 82 180 39 53 158 204 263 336 225 282 305 386 373 486 161 240 259 443 322 667 43 153 45 147 -47 167 -43 9 -85 18 -94 21 -13 4 -19 -8 -28 -54 -34 -174 -150 -436 -280 -634 -88 -135 -165 -236 -425 -562 -114 -143 -239 -303 -277 -356 l-69 -97 -16 -139 c-11 -96 -17 -233 -18 -442 l-1 -303 -23 -6 c-50 -12 -347 4 -442 25 -254 55 -556 183 -871 370 -80 47 -87 54 -92 89 -15 94 -80 246 -165 388 -61 103 -158 232 -336 450 -95 116 -201 251 -236 300 -93 129 -410 558 -423 572 -9 9 -30 -1 -89 -46 l-77 -58 165 -224 c91 -123 207 -280 257 -349 50 -69 168 -219 262 -335 264 -322 379 -503 437 -686 19 -62 23 -96 23 -204 0 -111 -4 -140 -24 -199 -22 -65 -28 -71 -108 -135 -257 -202 -562 -391 -1123 -696 -339 -184 -506 -277 -665 -370 -98 -58 -160 -87 -209 -99 -222 -55 -397 -200 -584 -487 -53 -81 -139 -214 -191 -294 -143 -221 -267 -334 -399 -363 -40 -9 -48 -7 -135 40 -389 211 -732 530 -875 813 -59 117 -77 197 -77 335 0 80 5 139 14 164 19 55 166 199 280 275 118 78 271 153 566 277 273 114 387 171 529 265 242 159 352 313 393 544 38 220 -22 503 -166 790 -75 148 -173 302 -253 396 -148 175 -232 328 -289 528 -17 59 -17 69 -4 122 39 150 56 295 60 504 2 116 6 287 10 380 8 195 -8 512 -27 568 -11 31 -25 45 -75 73 l-61 34 -30 -53 c-39 -69 -48 -104 -67 -257 -8 -69 -24 -190 -35 -270 -33 -247 -46 -525 -32 -712 7 -90 19 -198 27 -241 l14 -79 -35 -101 c-69 -197 -183 -428 -341 -691 -47 -77 -87 -143 -90 -146 -3 -3 -3 29 1 70 15 163 35 530 45 805 29 775 46 1063 82 1360 25 207 57 354 116 534 145 442 363 815 670 1143 287 307 602 518 978 656 61 22 161 64 224 92 376 170 828 314 1251 400 248 50 468 79 795 104 102 7 545 5 666 -4z m5143 -4488 c61 -220 226 -972 226 -1029 0 -8 -28 17 -62 54 -139 153 -234 239 -298 271 -35 18 -74 32 -87 32 -25 0 -27 6 -13 65 5 22 25 141 45 265 19 124 44 260 55 303 21 79 76 214 85 206 2 -3 24 -78 49 -167z m-632 -1347 c-6 -86 16 -287 43 -400 17 -69 25 -132 25 -191 0 -49 5 -174 10 -279 26 -501 99 -835 244 -1130 80 -162 139 -251 267 -401 111 -130 144 -181 154 -236 19 -102 -72 -187 -270 -255 -162 -55 -441 -90 -630 -79 -140 8 -192 31 -291 130 -135 135 -195 270 -324 721 -101 351 -140 465 -205 596 -74 149 -132 225 -286 379 -122 121 -152 157 -180 215 -31 63 -34 78 -34 160 0 86 2 96 39 171 45 90 156 210 262 281 149 101 374 191 537 215 86 12 88 13 82 36 -5 21 -3 23 12 17 167 -69 373 -39 503 74 19 17 37 30 40 31 3 0 3 -25 2 -55z m-6097 -1293 c-8 -80 8 -248 36 -382 12 -52 51 -203 89 -335 114 -401 131 -482 131 -648 0 -123 -11 -192 -48 -292 -31 -81 -57 -109 -150 -158 -301 -158 -689 -164 -978 -14 -106 55 -215 162 -270 267 l-40 75 1 160 c0 134 5 180 27 280 57 261 69 323 80 410 l12 90 85 51 c47 28 211 120 365 204 154 84 363 199 465 256 102 57 189 103 193 103 5 1 5 -30 2 -67z" />
    <path
       id="path4"
       d="M12005 6604 c-66 -41 -125 -78 -132 -82 -8 -5 4 -32 37 -86 27 -43 51 -80 53 -83 3 -2 64 32 136 77 124 77 130 83 119 103 -14 28 -89 147 -91 146 -1 0 -56 -34 -122 -75z" />
    <path
       id="path6"
       d="M12045 5883 c-11 -3 -55 -18 -97 -35 l-77 -29 20 -45 c10 -25 19 -48 19 -50 0 -2 -19 8 -42 22 l-42 27 -23 -29 c-13 -16 -32 -54 -44 -84 -28 -75 -20 -131 25 -165 71 -54 175 -20 328 108 94 79 132 168 97 226 -31 51 -93 71 -164 54z" />
  </g>
</svg>
