<?xml version="1.0" encoding="UTF-8" standalone="no"?>
<svg
   xmlns:dc="http://purl.org/dc/elements/1.1/"
   xmlns:cc="http://creativecommons.org/ns#"
   xmlns:rdf="http://www.w3.org/1999/02/22-rdf-syntax-ns#"
   xmlns:svg="http://www.w3.org/2000/svg"
   xmlns="http://www.w3.org/2000/svg"
   xmlns:sodipodi="http://sodipodi.sourceforge.net/DTD/sodipodi-0.dtd"
   xmlns:inkscape="http://www.inkscape.org/namespaces/inkscape"
   version="1.0"
   width="211.23682pt"
   height="691.77405pt"
   viewBox="0 0 211.23682 691.77405"
   preserveAspectRatio="xMidYMid meet"
   id="svg18"
   sodipodi:docname="Humans.svg"
   inkscape:version="0.92.2 5c3e80d, 2017-08-06">
  <metadata
     id="metadata24">
    <rdf:RDF>
      <cc:Work
         rdf:about="">
        <dc:format>image/svg+xml</dc:format>
        <dc:type
           rdf:resource="http://purl.org/dc/dcmitype/StillImage" />
        <dc:title></dc:title>
      </cc:Work>
    </rdf:RDF>
  </metadata>
  <defs
     id="defs22" />
  <sodipodi:namedview
     pagecolor="#ffffff"
     bordercolor="#666666"
     borderopacity="1"
     objecttolerance="10"
     gridtolerance="10"
     guidetolerance="10"
     inkscape:pageopacity="0"
     inkscape:pageshadow="2"
     inkscape:window-width="1620"
     inkscape:window-height="951"
     id="namedview20"
     showgrid="false"
     fit-margin-top="0"
     fit-margin-left="0"
     fit-margin-right="0"
     fit-margin-bottom="0"
     inkscape:zoom="0.47729708"
     inkscape:cx="479.27397"
     inkscape:cy="295.61109"
     inkscape:window-x="0"
     inkscape:window-y="0"
     inkscape:window-maximized="0"
     inkscape:current-layer="svg18" />
  <path
     style="fill:#000000;stroke:none;stroke-width:0.10000001"
     d="m 94.293976,100.17759 -6.7002,2.2998 c -3.699997,1.30001 -16.400092,4.40049 -28.100093,7.0005 -33.233115,11.14326 -50.1656328,18.88677 -55.9140304,45.14192 -2.1786225,43.69573 -5.025795,53.41541 -2.72935499,87.64504 1.44605249,16.7908 8.74558509,15.61379 15.04230739,19.21255 l 8.000978,4.70068 -0.600585,22.59961 c -0.3,12.4 -1.599315,37.2001 -2.799315,55.1001 -1.8,27.9 -2.000003,38.10049 -1.5,71.50049 0.6,39.7 0.899025,45.49951 6.999022,132.49951 1.899998,27.20001 3.8001,55.09952 4.1001,61.99952 0.900001,19.9 0.500288,18.7 7.800293,19.5 9.9,1 9.899513,1.00107 4.999508,6.10107 -8.299995,9 -13.299316,20.99873 -13.299316,32.19873 0,11.8 3.299416,18.00127 11.399416,21.80127 5.799997,2.7 11.400292,2.99902 19.800292,0.99902 6.9,-1.6 11.900296,-5.19951 15.300293,-10.99951 3.9,-6.7 4.499708,-9.7001 5.699708,-28.1001 1.5,-24.09999 1.4001,-23.50019 2.6001,-24.70019 0.6,-0.6 2.899995,-0.80029 6,-0.30029 l 4.999507,0.70019 -1.8999,4.1001 c -3.099997,7 -1.899022,16.49981 3.500978,26.2998 11.399996,21 32.599706,24.80059 44.699706,8.10059 4.9,-6.8 3.39932,-13.20049 -6.20068,-26.50049 -3.4,-4.6 -6.79923,-10.10029 -7.69923,-12.30029 -0.99999,-2.5 -2.30019,-4.1 -3.70019,-4.5 -2.1,-0.5 -1.89951,-0.89951 2.50049,-4.99952 11,-10.29999 15.19961,-24.0999 19.59961,-63.3999 1.3,-12.39999 2.60039,-23.60049 2.90039,-25.00048 3.7,-20.80001 9.19902,-47.20001 15.99903,-76.5 9.09999,-38.80001 12.70009,-57 14.60009,-73.5 1.4,-12.70001 1.4,-36.20001 0,-52.50001 -0.6,-6.6 -1.10009,-19.70019 -1.10009,-29.2002 v -17.19873 l 6.10107,-10.12828 c 3.6,-0.40001 8.59932,-1.90098 11.79931,-3.50098 27.41505,-51.8437 9.0771,-88.44271 4.41533,-119.3571 -8.46524,-25.89368 -21.81124,-34.72552 -40.31571,-40.71481 -8.7,-0.2 -26.59991,-1.59922 -40.89991,-3.19922 z"
     id="path2"
     inkscape:connector-curvature="0"
     sodipodi:nodetypes="ccccccccccccccsccccsccccccccccccccsccccccc" />
  <path
     style="fill:#000000;stroke:none;stroke-width:0.1"
     inkscape:connector-curvature="0"
     id="path4"
     d="m 83.093283,1.5777852 c -6.3,2.3 -11.5,6.3 -14.7,11.0999998 -1.3,2 -4.1,6.2 -6,9.2 -11.8,17.9 -13.7,31.8 -6.3,46.5 5.3,10.7 13.3,18.3 24.6,23.4 15.6,7 31.699997,5.7 41.799997,-3.4 8.4,-7.6 11.2,-18.3 10.7,-40 -0.2,-11.5 -0.7,-15 -2.5,-19.7 -7.9,-20.5999998 -30.3,-33.2999998 -47.599997,-27.0999998 z" />
</svg>
